<?xml version="1.0" encoding="UTF-8"?>
<svg width="48px" height="48px" viewBox="0 0 48 48" version="1.1" xmlns="http://www.w3.org/2000/svg" xmlns:xlink="http://www.w3.org/1999/xlink">
    <title>Group 6</title>
    <g id="home" stroke="none" stroke-width="1" fill="none" fill-rule="evenodd">
        <g id="7a.-Home_Mobile@320_menu" transform="translate(-204.000000, 0.000000)">
            <g id="Group-21" transform="translate(9.000000, 0.000000)">
                <g id="Group-12" transform="translate(147.000000, 0.000000)">
                    <g id="Group-24" transform="translate(48.000000, 0.000000)">
                        <g id="02-_-Core-Logo-_-DIGITAL-Copy-10">
                            <g id="Group-6">
                                <polygon id="Fill-1" fill="#00A0DF" points="0 0 47.1428571 0 47.1428571 47.98 0 47.98"></polygon>
                                <path d="M40.9658333,21.7493333 C40.9658333,21.095 40.5664286,20.5533333 40.2148214,20.074 C39.9142857,19.665 39.6297917,19.2803333 39.6297917,18.886 C39.6297917,18.3496667 39.9267262,18.0046667 40.38375,18.0046667 C40.6122619,18.0046667 40.800506,18.093 40.9822024,18.1796667 C41.1694643,18.2686667 41.3632738,18.3606667 41.5996429,18.3606667 C41.9188393,18.3606667 42.2033333,18.0156667 42.2033333,17.743 C42.2033333,17.414 41.8599107,17.0726667 41.2840476,17.0726667 C39.9656845,17.0726667 38.793006,18.5936667 38.793006,19.7916667 C38.793006,20.4443333 39.1838988,20.9536667 39.5289583,21.4013333 C39.8072321,21.7623333 40.0475298,22.0736667 40.0475298,22.394 C40.0475298,22.9303333 39.5600595,23.252 39.0905952,23.252 C38.6208036,23.252 38.2927679,22.952 38.0295536,22.71 C37.833125,22.532 37.6632143,22.377 37.4828274,22.377 C37.2274702,22.377 37.1695238,22.926 37.1695238,23.1196667 C37.1695238,23.43 37.7967857,23.9436667 38.511131,23.9436667 C39.5934524,23.9436667 40.9658333,22.91 40.9658333,21.7493333" id="Fill-3" fill="#FFFFFF"></path>
                                <path d="M12.1965774,13.3133333 C12.1694048,13.3133333 12.1399405,13.3423333 12.1399405,13.3693333 L12.1399405,13.6923333 C12.1399405,13.7146667 12.1546726,13.7343333 12.178244,13.7446667 C12.1805357,13.7446667 12.3746726,13.764 12.3746726,13.764 L12.6202083,13.7873333 C12.9397321,13.839 13.0241964,13.896 13.0241964,14.0596667 C13.0241964,14.3333333 12.7216964,15.197 12.3029762,16.392 L11.9294345,17.469 C11.6069643,18.4196667 11.1060714,19.7493333 10.6641071,20.922 C10.1373512,22.322 9.72059524,23.426 9.72059524,23.5736667 C9.72059524,23.7516667 9.81553571,23.7946667 10.2025,23.7946667 C10.6300595,23.7946667 10.8209226,23.7273333 10.8638095,23.563 C11.600744,21.0836667 13.6354167,18.2556667 14.6830357,18.2556667 C15.0140179,18.2556667 15.1325298,18.3733333 15.1325298,18.71 C15.1325298,19.2606667 14.6745238,20.2943333 14.2315774,21.296 C13.8400298,22.1786667 13.4710714,23.0123333 13.4710714,23.4063333 C13.4710714,23.7703333 13.6318155,23.955 13.9500298,23.955 C14.9950298,23.955 15.7800893,23.0006667 16.4112798,22.2336667 L16.5006548,22.1243333 C16.5022917,22.122 16.5160417,22.0883333 16.5160417,22.0883333 L16.4983631,22.0493333 C16.5,22.052 16.282619,21.789 16.282619,21.789 C16.2790179,21.7803333 16.2665774,21.7726667 16.2531548,21.769 C16.2380952,21.7666667 16.220744,21.7706667 16.2066667,21.7833333 C15.8504762,22.166 15.2480952,22.7406667 15.0781845,22.765 C15.0303869,22.769 14.998631,22.765 14.9809524,22.746 C14.9570536,22.7216667 14.9527976,22.67 14.9636012,22.579 C14.9744048,22.4976667 15.0857143,22.2253333 15.239256,21.85 C15.638006,20.8763333 16.3025893,19.2496667 16.3025893,18.287 C16.3025893,17.5153333 15.9411607,17.0726667 15.3109524,17.0726667 C14.0371131,17.0726667 13.0114286,18.552 12.5183929,19.2623333 C12.4054464,19.427 12.2974107,19.5813333 12.269256,19.5876667 C12.260744,19.5876667 12.253869,19.5853333 12.25125,19.5813333 C12.2299702,19.5493333 12.3010119,19.38 12.4309821,19.074 C12.5688095,18.749 12.7773512,18.2566667 13.0625,17.5 C14.0191071,14.958 14.4257143,13.5986667 14.4257143,13.4843333 C14.4257143,13.3326667 14.28625,13.3133333 14.1500595,13.3133333 L12.1965774,13.3133333" id="Fill-4" fill="#FFFFFF"></path>
                                <path d="M9.40041667,22.38 C9.40630952,22.3643333 9.40532738,22.3373333 9.39255952,22.322 C9.39092262,22.3193333 9.17419643,22.086 9.17419643,22.086 C9.17026786,22.0753333 9.15651786,22.0656667 9.13916667,22.0633333 C9.12770833,22.061 9.11363095,22.0656667 9.10708333,22.074 C9.109375,22.0736667 9.08154762,22.0976667 9.08154762,22.0976667 C8.68672619,22.469 7.92065476,23.1013333 7.23511905,23.1496667 C6.97255952,23.1703333 6.72473214,23.0886667 6.54074405,22.9236667 C6.31485119,22.7223333 6.18553571,22.403 6.16327381,21.997 C6.1171131,20.95 6.99220238,19.3623333 7.86532738,18.4313333 C8.33479167,17.9303333 8.76529762,17.655 9.07794643,17.655 C9.44297619,17.655 9.67181548,17.9293333 9.893125,18.1953333 C10.0869345,18.4276667 10.2692857,18.6476667 10.5246429,18.6476667 C10.6271131,18.6476667 10.736131,18.5953333 10.8176488,18.5093333 C10.9096429,18.41 10.9564583,18.283 10.9515476,18.1506667 C10.9332143,17.7406667 10.5613095,17.0883333 9.64300595,17.0726667 C8.59244048,17.0543333 7.28291667,17.7036667 6.3060119,18.7286667 C5.3746131,19.707 4.88943452,20.8636667 4.94345238,21.985 C4.98372024,22.9283333 5.48297619,23.935 6.77089286,23.935 C8.06568452,23.935 9.21151786,22.7543333 9.40041667,22.38" id="Fill-5" fill="#FFFFFF"></path>
                                <path d="M26.3659524,19.9766667 C26.3394345,20.033 26.2657738,20.181 26.2484226,20.178 C26.241875,20.178 26.230744,20.1763333 26.230744,20.1763333 C26.232381,20.1763333 26.2343452,20.1263333 26.2343452,20.1263333 C26.2382738,20.064 26.3034226,19.79 26.3846131,19.4423333 C26.5391369,18.7833333 26.7519345,17.8813333 26.7519345,17.6243333 C26.7519345,17.2846667 26.5705655,17.099 26.2405655,17.099 C25.5455357,17.099 24.4962798,18.2606667 24.1299405,18.8833333 C24.124375,18.8843333 24.1188095,18.897 24.1181548,18.9086667 C24.1171726,18.91 24.1171726,18.912 24.1171726,18.913 C24.1171726,18.927 24.1227381,18.9396667 24.1319048,18.9496667 L24.3391369,19.169 C24.3437202,19.18 24.3600893,19.1893333 24.3774405,19.1893333 C24.3954464,19.1893333 24.4114881,19.1793333 24.4193452,19.1646667 C24.4183631,19.165 24.4812202,19.0943333 24.4812202,19.0943333 C24.4831845,19.0923333 24.5336012,19.0263333 24.5336012,19.0263333 C24.7689881,18.7253333 25.25875,18.0986667 25.5124702,18.0986667 C25.6489881,18.0986667 25.72625,18.2403333 25.72625,18.4893333 C25.72625,19.1136667 25.0502083,21.0196667 24.601369,22.282 C24.3476488,22.9943333 24.165625,23.512 24.165625,23.61 C24.165625,23.748 24.2170238,23.8103333 24.3352083,23.8103333 L24.9172917,23.8103333 C25.0397321,23.8103333 25.0790179,23.7333333 25.1625,23.5476667 C25.166756,23.5396667 25.4505952,22.851 25.6110119,22.5153333 C26.7656845,20.1143333 27.4004762,18.8866667 27.8846726,18.408 C28.2058333,18.09 28.4353274,17.947 28.6019643,17.957 C28.7299702,17.9646667 28.8095238,18.062 28.8949702,18.1666667 C28.9869643,18.282 29.0822321,18.4 29.2511607,18.4116667 C29.3706548,18.4186667 29.482619,18.376 29.5742857,18.287 C29.7176786,18.1486667 29.8027976,17.911 29.8027976,17.6506667 C29.8027976,17.2136667 29.5029167,17.0586667 29.2455952,17.0586667 C28.1891369,17.0586667 27.4089881,17.8503333 26.3659524,19.9766667" id="Fill-6" fill="#FFFFFF"></path>
                                <path d="M18.1071131,22.258 C18.1071131,20.3203333 19.6183036,17.6283333 21.10625,17.6283333 C21.5989583,17.6283333 21.8837798,17.9236667 21.8837798,18.4386667 C21.8837798,19.2376667 19.8186607,22.917 18.5333631,22.917 C18.2636012,22.917 18.1071131,22.81 18.1071131,22.258 L18.1071131,22.258 Z M22.7323512,16.9413333 C22.6403571,16.97 22.5860119,17.0543333 22.533631,17.1353333 C22.4724107,17.2306667 22.4128274,17.322 22.3021726,17.322 C22.2055952,17.322 22.107381,17.3003333 21.9947619,17.276 C21.8399107,17.244 21.6474107,17.2016667 21.3874702,17.2016667 C18.4701786,17.2016667 16.9409821,21.1963333 16.9409821,22.5766667 C16.9409821,23.5133333 17.4484226,23.9316667 17.9483333,23.9316667 C18.5716667,23.9316667 19.4202381,23.718 20.4907738,22.0426667 C20.4907738,22.0426667 20.7271429,21.6353333 20.7572619,21.6353333 C20.7710119,21.6353333 20.7785417,21.6366667 20.7841071,21.6426667 C20.7945833,21.655 20.7975298,21.68 20.7841071,21.7166667 L20.6999702,21.918 C20.5647619,22.2146667 20.3162798,22.765 20.3162798,23.27 C20.3162798,23.5093333 20.3735714,23.6893333 20.4868452,23.804 C20.5866964,23.9023333 20.7261607,23.9516667 20.9055655,23.9496667 C21.9171726,23.9316667 22.7925893,22.6033333 23.1222619,22.1033333 C23.1193155,22.1066667 23.1340476,22.077 23.1340476,22.077 L23.120625,22.0386667 L22.9002976,21.773 C22.8698512,21.7486667 22.8416964,21.7493333 22.8220536,21.773 L22.5961607,22.0533333 C22.2969345,22.435 21.9250298,22.9076667 21.6978274,22.9076667 C21.6454464,22.9076667 21.6130357,22.898 21.594375,22.8776667 C21.5665476,22.849 21.5586905,22.7923333 21.564256,22.6776667 C21.5816071,22.357 22.196756,20.712 22.6907738,19.3893333 C23.056131,18.4136667 23.3713988,17.5703333 23.3828571,17.4343333 C23.3835119,17.4033333 23.379256,17.3003333 23.288244,17.2566667 L23.2908631,17.2566667 L22.8953869,16.9853333 C22.8934226,16.9833333 22.875744,16.975 22.875744,16.975 C22.8322024,16.9503333 22.7765476,16.9226667 22.7323512,16.9413333 L22.7323512,16.9413333 Z" id="Fill-7" fill="#FFFFFF"></path>
                                <path d="M36.540625,17.499 C36.8725893,17.499 37.1037202,17.7316667 37.1037202,18.0646667 C37.1037202,18.8833333 36.1769048,19.3636667 34.5642262,19.393 C34.8555952,18.8416667 35.7365774,17.499 36.540625,17.499 L36.540625,17.499 Z M32.2286905,22.0683333 C32.2286905,23.1736667 32.9368155,23.9436667 33.9507143,23.9436667 C35.1463095,23.9436667 36.4103274,22.782 36.709881,22.381 C36.7259226,22.359 36.7197024,22.332 36.7039881,22.318 L36.705625,22.3193333 L36.5085417,22.0753333 C36.4826786,22.0556667 36.4541964,22.0543333 36.4342262,22.0683333 L36.2711905,22.1903333 C35.8760417,22.491 35.1430357,23.0486667 34.601875,23.0486667 C33.9330357,23.0486667 33.5185714,22.6166667 33.5185714,21.918 C33.5185714,21.0703333 33.9251786,20.4403333 34.2224405,19.9793333 C34.2224405,19.9793333 34.2499405,19.937 34.2587798,19.9236667 C34.274494,19.925 34.3710714,19.9306667 34.3710714,19.9306667 L34.9947321,19.9523333 C36.0829464,19.9523333 38.1166369,19.423 38.1166369,18.1506667 C38.1166369,17.6283333 37.6409524,17.0726667 36.758006,17.0726667 C34.8873512,17.0726667 32.2286905,19.6553333 32.2286905,22.0683333 L32.2286905,22.0683333 Z" id="Fill-8" fill="#FFFFFF"></path>
                                <path d="M31.6839286,22.146 C31.7029167,22.1203333 31.6914583,22.0956667 31.6875298,22.086 C31.682619,22.0736667 31.46,21.789 31.46,21.789 C31.4495238,21.7766667 31.435119,21.7706667 31.4200595,21.7706667 C31.4053274,21.7706667 31.3919048,21.7766667 31.3814286,21.7883333 L31.306131,21.874 C30.7391071,22.5126667 30.424494,22.8646667 30.1652083,22.8803333 C30.135744,22.8816667 30.0928571,22.8756667 30.0584821,22.8406667 C30.0195238,22.8016667 30.0008631,22.7333333 30.0070833,22.6466667 C30.0227976,22.2903333 30.5934226,20.6173333 31.74875,17.5313333 L32.5881548,15.321 C33.0284821,14.1693333 33.2488095,13.591 33.250119,13.5116667 C33.2533929,13.463 33.2399702,13.4216667 33.2144345,13.3926667 C33.1731845,13.3466667 33.0991964,13.327 32.9846131,13.327 L31.0249107,13.327 C30.9954464,13.327 30.971875,13.348 30.9669643,13.3793333 C30.9669643,13.381 30.9568155,13.6996667 30.9568155,13.6996667 C30.9568155,13.7236667 30.971875,13.7496667 30.996756,13.7536667 C30.9983929,13.7536667 31.4334821,13.7933333 31.4334821,13.7933333 C31.7140476,13.841 31.8256845,13.9366667 31.8168452,14.1223333 C31.8066964,14.402 30.543006,17.5923333 30.543006,17.5923333 C29.8643452,19.312 28.7214583,22.3 28.6861012,22.9983333 C28.6707143,23.3113333 28.7437202,23.562 28.8949702,23.7256667 C29.0318155,23.8703333 29.2252976,23.9436667 29.4734524,23.9436667 C30.2702976,23.9436667 31.0661607,22.933 31.5919345,22.2633333 L31.682619,22.146 L31.6839286,22.146 L31.6839286,22.146 Z" id="Fill-9" fill="#FFFFFF"></path>
                                <path d="M4.94967262,28.1473333 C4.94967262,29.08 5.67645833,29.5896667 6.38785714,29.965 L6.69199405,30.119 C7.40372024,30.476 7.69345238,30.8503333 7.69345238,31.4086667 C7.69345238,32.046 7.28880952,32.4936667 6.70934524,32.4936667 C5.77827381,32.4936667 5.26166667,31.5093333 5.03642857,30.923 L5.02955357,30.908 L4.71428571,31.0163333 L4.71625,31.031 C4.81675595,31.6316667 4.92872024,32.2803333 5.00401786,32.5346667 L5.0066369,32.5426667 L5.16083333,32.601 L5.57071429,32.7483333 C5.84735119,32.8533333 6.19404762,32.9123333 6.52470238,32.9123333 C7.81622024,32.9123333 8.71979167,32.098 8.71979167,30.928 C8.71979167,29.8283333 7.89675595,29.3296667 7.27767857,29.048 L7.03345238,28.9343333 C6.2441369,28.5666667 5.92166667,28.2113333 5.92166667,27.7063333 C5.92166667,27.2083333 6.21892857,26.7046667 6.87827381,26.7046667 C7.65220238,26.7046667 7.94619048,27.324 8.13279762,27.93 L8.13705357,27.9453333 L8.47065476,27.881 L8.46672619,27.864 C8.38357143,27.383 8.32300595,26.956 8.28044643,26.558 L8.2791369,26.5476667 L8.05782738,26.4746667 L7.86598214,26.4173333 C7.624375,26.3296667 7.29633929,26.278 6.99056548,26.278 C5.78973214,26.278 4.94967262,27.0453333 4.94967262,28.1473333" id="Fill-10" fill="#FFFFFF"></path>
                                <path d="M9.40761905,29.7053333 C9.40761905,31.301 10.4977976,32.9123333 12.9315476,32.9123333 C13.5594643,32.9123333 14.3831548,32.7246667 14.7308333,32.6243333 C14.9017262,32.2323333 15.1177976,31.419 15.22125,31 L15.2251786,30.9823333 L14.9269345,30.915 L14.9207143,30.9253333 C14.4289881,31.941 13.9680357,32.4936667 12.9315476,32.4936667 C11.5863393,32.4936667 10.6824405,31.2723333 10.6824405,29.454 C10.6824405,28.185 11.2717262,26.7046667 12.9315476,26.7046667 C13.9061607,26.7046667 14.4375,27.13 14.7092262,28.1256667 L14.7128274,28.1396667 L15.0146726,28.0986667 L14.9701488,27.666 L14.8349405,26.5283333 L14.8231548,26.5283333 L14.654881,26.488 C14.3288095,26.4093333 13.7850298,26.278 13.1040774,26.278 C10.9292857,26.278 9.40761905,27.686 9.40761905,29.7053333" id="Fill-11" fill="#FFFFFF"></path>
                                <path d="M22.3499702,26.4283333 L19.6287798,26.4283333 L19.6287798,26.732 L19.6448214,26.734 C20.3401786,26.79 20.4285714,26.8376667 20.4285714,27.902 L20.4285714,29.1846667 L17.5633333,29.1846667 L17.5633333,27.902 C17.5633333,26.8376667 17.6497619,26.79 18.3323512,26.734 L18.3490476,26.732 L18.3490476,26.4283333 L15.5879167,26.4283333 L15.5879167,26.732 L15.6023214,26.734 C16.408006,26.7926667 16.4646429,26.8696667 16.4646429,27.902 L16.4646429,31.2953333 C16.4646429,32.3176667 16.4027679,32.404 15.6389881,32.4646667 L15.6249107,32.467 L15.6249107,32.769 L18.3850595,32.769 L18.3850595,32.467 L18.3696726,32.4646667 C17.6536905,32.408 17.5633333,32.358 17.5633333,31.2953333 L17.5633333,29.6663333 L20.4285714,29.6663333 L20.4285714,31.2953333 C20.4285714,32.327 20.373244,32.404 19.5672321,32.4646667 L19.5511905,32.467 L19.5511905,32.769 L22.3489881,32.769 L22.3489881,32.467 L22.334256,32.4646667 C21.6110714,32.4066667 21.5328274,32.363 21.5328274,31.2953333 L21.5328274,27.902 C21.5328274,26.8696667 21.5855357,26.7926667 22.3516071,26.734 L22.3673214,26.732 L22.3673214,26.4283333 L22.3499702,26.4283333" id="Fill-12" fill="#FFFFFF"></path>
                                <path d="M31.8983631,26.4283333 L29.6895238,26.4283333 L29.6895238,26.732 L30.0352381,26.757 C30.2247917,26.7736667 30.3223512,26.809 30.3727679,26.8846667 C30.4035417,26.928 30.4189286,26.987 30.4189286,27.0706667 C30.4189286,27.1733333 30.3960119,27.312 30.3469048,27.505 C30.3259524,27.5946667 29.8014881,29.7003333 29.3922619,31.1076667 C29.3130357,30.9093333 27.738006,26.5163333 27.738006,26.5163333 L27.7340774,26.5043333 L27.3356548,26.5043333 C27.3356548,26.5043333 25.9138393,31.044 25.8941964,31.106 C25.829375,30.9003333 24.7905952,27.349 24.7905952,27.349 C24.7513095,27.212 24.7329762,27.106 24.7329762,27.0273333 C24.7329762,26.965 24.7441071,26.9196667 24.7666964,26.8833333 C24.8174405,26.805 24.9254762,26.7776667 25.0953869,26.755 C25.0970238,26.755 25.4027976,26.732 25.4027976,26.732 L25.4027976,26.4283333 L22.7942262,26.4283333 L22.7942262,26.732 L22.8099405,26.734 C23.3186905,26.7926667 23.4758333,26.8466667 23.729881,27.6716667 L25.3019643,32.848 L25.7508036,32.848 C25.7508036,32.848 27.2122321,28.3793333 27.2308929,28.32 C27.3022619,28.5053333 28.8484821,32.8376667 28.8484821,32.8376667 L28.8540476,32.848 L29.298631,32.848 L29.30125,32.836 C30.1789583,29.8386667 30.9024702,27.735 30.9106548,27.713 C31.223631,26.827 31.2989286,26.79 31.8993452,26.734 L31.9150595,26.732 L31.9150595,26.4283333 L31.8983631,26.4283333 L31.8983631,26.4283333 Z" id="Fill-13" fill="#FFFFFF"></path>
                                <path d="M34.7305357,28.1283333 L34.0849405,26.357 L34.0721726,26.358 L33.6708036,26.401 L31.728125,31.4823333 C31.4013988,32.351 31.2956548,32.388 30.7155357,32.465 L30.7008036,32.467 L30.7008036,32.769 L32.8494048,32.769 L32.8494048,32.467 L32.569494,32.4333333 C32.3622619,32.409 32.2571726,32.369 32.2087202,32.292 C32.1851488,32.2563333 32.1746726,32.2113333 32.1746726,32.1516667 C32.1746726,32.0616667 32.2021726,31.937 32.2581548,31.7673333 L32.3088988,31.6123333 C32.4333036,31.2286667 32.5740774,30.793 32.6827679,30.5433333 L34.427381,30.5433333 C34.629375,31.0636667 34.8513393,31.6416667 34.9436607,31.9236667 C34.9809821,32.045 35.0045536,32.137 35.0045536,32.2073333 C35.0045536,32.2453333 34.9983333,32.2773333 34.9819643,32.3026667 C34.9479167,32.3606667 34.8624702,32.398 34.6899405,32.424 L34.4100298,32.4686667 L34.4100298,32.769 L36.9508333,32.769 L36.9508333,32.467 L36.9354464,32.465 C36.4044345,32.408 36.2669345,32.3606667 35.9379167,31.4823333 L34.7305357,28.1283333 L34.7305357,28.1283333 Z M33.5369048,27.9556667 C33.5444345,27.979 34.2535417,30.013 34.2699107,30.057 L32.7996429,30.057 C32.8150298,30.013 33.5244643,27.979 33.5326488,27.9556667 L33.5369048,27.9556667 L33.5369048,27.9556667 Z" id="Fill-14" fill="#FFFFFF"></path>
                                <path d="M39.5535119,29.5643333 C40.6089881,29.5643333 41.2133333,30.0916667 41.2133333,31.0106667 C41.2133333,31.998 40.5618452,32.3483333 39.9535714,32.3483333 C39.6772619,32.357 39.5250298,32.3193333 39.4261607,32.222 C39.2749107,32.0733333 39.2461012,31.7646667 39.2461012,31.2793333 L39.2461012,29.5643333 L39.5535119,29.5643333 L39.5535119,29.5643333 Z M37.4176786,26.4283333 L37.4003274,26.4283333 L37.4003274,26.732 L37.4157143,26.734 C38.0783333,26.79 38.163125,26.8376667 38.163125,27.902 L38.163125,31.2953333 C38.163125,32.358 38.071131,32.408 37.3571131,32.4646667 L37.3420536,32.467 L37.3420536,32.769 L39.730625,32.769 C40.4950595,32.769 41.1439286,32.6316667 41.5629762,32.3806667 C42.1453869,32.0223333 42.4288988,31.539 42.4288988,30.9003333 C42.4288988,30.0216667 41.7986905,29.415 40.7445238,29.2686667 C41.2133333,29.1656667 42.0700893,28.755 42.0700893,27.8666667 C42.0700893,27.364 41.8923214,26.999 41.5286012,26.75 C41.1622619,26.514 40.7759524,26.4283333 40.051131,26.4283333 L37.4176786,26.4283333 L37.4176786,26.4283333 Z M39.2461012,27.2986667 C39.2461012,27.0746667 39.2461012,26.9106667 39.3174702,26.8726667 C39.3374405,26.8623333 39.4353274,26.8303333 39.7456845,26.8303333 C40.0242857,26.8303333 40.9317857,26.9133333 40.9317857,27.993 C40.9317857,28.7623333 40.4623214,29.1846667 39.6108036,29.1846667 L39.2461012,29.1846667 L39.2461012,27.2986667 L39.2461012,27.2986667 Z" id="Fill-15" fill="#FFFFFF"></path>
                            </g>
                        </g>
                    </g>
                </g>
            </g>
        </g>
    </g>
</svg>